<svg width="81" height="81" fill="none" xmlns="http://www.w3.org/2000/svg"><path d="M79.73 33.865c3.837 21.756-10.69 42.502-32.446 46.339C25.528 84.04 4.782 69.513.946 47.757-2.89 26.001 11.636 5.255 33.392 1.42c21.756-3.836 42.502 10.69 46.339 32.446z" fill="#7846C5"/><path d="M12.167 41.332l.345-.06c.413-.073.716-.207.91-.403.2-.206.356-.612.467-1.22.11-.606.164-1.511.16-2.715l-.023-4.004 7.142-1.26.012 10.149-2.054.362-.02-8.256-3.144.554.007 2.458c-.003 1.214-.069 2.216-.195 3.006-.127.78-.344 1.406-.65 1.877-.305.471-.656.817-1.053 1.039-.39.21-.901.372-1.535.484l-.359.063-.01-2.074zm13.8 2.486l-1.973.348 1.501-3.904-2.947-5.992 1.875-.33 1.81 3.576.36-.064 1.636-4.183 1.971-.348-4.234 10.897zm5.1-11.05l1.93-.34v2.019c-.016.173-.011.338.017.494.038.22.147.382.326.483.187.09.496.097.928.021.515-.09.966-.218 1.355-.381l.007-3.1 1.93-.34-.005 7.307-1.93.34-.004-2.6c-.622.233-1.232.402-1.83.507-1.59.28-2.477-.103-2.661-1.151a4.601 4.601 0 01-.06-.9l-.003-2.359zm16.418-2.895l1.875-.33.009 7.305-9.762 1.721-.008-7.305 1.875-.33.002 5.657 2.082-.367-.016-5.655 1.875-.331.002 5.657 2.068-.364-.002-5.658zm5.902 6.267l-1.972.347-.008-7.305 1.875-.33.002 4.122.358-.064 2.576-4.577 2-.352.008 7.305-1.875.331v-4.109l-.358.064-2.606 4.568zm8.846-1.56l-1.972.348-.008-7.306 1.875-.33.002 4.122.358-.064 2.576-4.576 2-.353.008 7.306-1.875.33V29.95l-.358.063-2.606 4.568zm-1.277-9.982l1.49-.263a.29.29 0 00.005.113l.012.069c.036.202.142.35.32.441.186.09.413.112.68.065.615-.108.947-.456.995-1.043l1.503-.265c-.023.677-.24 1.242-.654 1.694-.415.443-.999.73-1.753.863-.717.127-1.301.064-1.753-.188-.443-.254-.715-.67-.817-1.25l-.015-.082a.564.564 0 01-.013-.154zm-40.808 33.65l-1.397-2.441-.497.087-1.401 2.934-2.082.367 2.005-4.106-1.807-3.235 1.903-.336 1.27 2.292.483-.085 1.307-2.747 2.027-.357-1.824 3.847L22.12 57.9l-1.971.347zm6.245-8.594c.947-.167 1.792-.022 2.536.435.744.456 1.202 1.171 1.373 2.146.223 1.259.041 2.352-.544 3.28-.587.919-1.5 1.487-2.741 1.706-.956.169-1.8.029-2.534-.42-.726-.46-1.175-1.182-1.348-2.165-.224-1.269-.052-2.36.517-3.276.577-.916 1.491-1.485 2.741-1.706zm.466 5.946c.615-.109 1.057-.452 1.325-1.03.268-.578.34-1.22.214-1.928-.09-.515-.299-.89-.625-1.127-.326-.236-.732-.312-1.22-.226-.606.107-1.043.45-1.311 1.028-.27.569-.343 1.202-.22 1.9.093.525.303.91.63 1.155.327.236.729.312 1.207.228zm9.73-2.71l1.916-.339c-.008.817-.274 1.508-.8 2.075-.516.565-1.243.93-2.18 1.095-.938.165-1.764.022-2.48-.43-.715-.461-1.16-1.18-1.331-2.154-.222-1.259-.055-2.35.503-3.273s1.452-1.493 2.684-1.71c.818-.144 1.542-.04 2.173.314a2.44 2.44 0 011.235 1.601l-1.902.336c-.208-.532-.647-.739-1.318-.62-.598.105-1.021.445-1.27 1.02-.251.565-.314 1.202-.19 1.91.091.514.287.897.587 1.147.307.24.69.319 1.15.238a1.54 1.54 0 00.85-.42c.218-.219.342-.482.373-.79zm2.874-3.692l.005-1.664 6.535-1.153-.005 1.664-2.288.404v5.644l-1.93.34V48.79l-2.317.409zm9.97 3.886l-1.971.347-.01-7.305 1.876-.33.002 4.121.358-.063 2.577-4.577 1.999-.352.009 7.305-1.876.33.001-4.108-.358.064-2.607 4.568zm13.622-9.71l.022 7.304-1.944.343-.002-2.914-2.895.51.002 2.914-1.93.34-.01-7.305 1.931-.34-.002 2.73 2.895-.511.002-2.73 1.93-.34zm7.73-1.362l-.005 1.664-3.75.661v5.644l-1.93.34-.009-7.305 5.694-1.004z" fill="#fff"/></svg>