<svg width="138" height="48" fill="none" xmlns="http://www.w3.org/2000/svg"><path d="M1.504 31.808l16.992-10.224a2.905 2.905 0 013.008 0l16.992 10.224A3.164 3.164 0 0140 34.515v-5.996c0-1.118-.58-2.147-1.504-2.707L21.504 15.588a2.905 2.905 0 00-3.008 0L1.504 25.812A3.164 3.164 0 000 28.52v5.996c0-1.119.58-2.148 1.504-2.707z" fill="#022A5F"/><path d="M38.496 31.36L21.504 41.585a2.907 2.907 0 01-3.008 0L1.504 31.36A3.164 3.164 0 010 28.654v5.995c0 1.119.58 2.148 1.504 2.707L18.496 47.58c.924.56 2.063.56 3.008 0l16.992-10.224A3.164 3.164 0 0040 34.65v-5.995c0 1.118-.58 2.147-1.504 2.706z" fill="#023579"/><path d="M1.504 24.224l16.992-10.225a2.905 2.905 0 013.008 0l16.992 10.225A3.164 3.164 0 0140 26.93v-5.996c0-1.119-.58-2.148-1.504-2.707L21.504 8.004a2.905 2.905 0 00-3.008 0L1.504 18.228A3.164 3.164 0 000 20.935v5.996c0-1.119.58-2.17 1.504-2.707z" fill="#034BAB"/><path d="M38.496 23.754L21.504 33.978c-.924.56-2.063.56-3.008 0L1.504 23.754A3.164 3.164 0 010 21.047v5.996c0 1.118.58 2.147 1.504 2.707l16.992 10.224c.924.56 2.063.56 3.008 0L38.496 29.75A3.164 3.164 0 0040 27.043v-5.996c0 1.119-.58 2.17-1.504 2.707z" fill="#0361DC"/><path d="M1.504 16.617L18.496 6.393a2.905 2.905 0 013.008 0l16.992 10.224A3.164 3.164 0 0140 19.324v-5.996c0-1.118-.58-2.147-1.504-2.707L21.504.42a2.905 2.905 0 00-3.008 0L1.504 10.644A3.164 3.164 0 000 13.35v5.995c0-1.14.58-2.17 1.504-2.729z" fill="#007ACC"/><path d="M38.496 16.17L21.504 26.394c-.924.56-2.063.56-3.008 0L1.504 16.17A3.164 3.164 0 010 13.463v5.995c0 1.119.58 2.148 1.504 2.708L18.496 32.39a2.907 2.907 0 003.008 0l16.992-10.224A3.164 3.164 0 0040 19.458v-5.995c0 1.118-.58 2.147-1.504 2.707z" fill="#09F"/><path d="M61.864 18.148h2.682V31h-2.682v-5.382h-5.688V31h-2.682V18.148h2.682v5.004h5.688v-5.004zm9.761 3.366c1.464 0 2.628.444 3.492 1.332.864.888 1.296 2.064 1.296 3.528s-.432 2.64-1.296 3.528c-.864.888-2.028 1.332-3.492 1.332-1.452 0-2.616-.444-3.492-1.332-.864-.9-1.296-2.076-1.296-3.528s.432-2.622 1.296-3.51c.876-.9 2.04-1.35 3.492-1.35zm0 7.632c.756 0 1.32-.258 1.692-.774.384-.528.576-1.194.576-1.998 0-.792-.192-1.446-.576-1.962-.372-.528-.936-.792-1.692-.792-.744 0-1.308.264-1.692.792-.384.516-.576 1.17-.576 1.962 0 .804.192 1.47.576 1.998.384.516.948.774 1.692.774zm14.456-4.86h-2.502c-.108-.552-.606-.828-1.494-.828-.9 0-1.35.264-1.35.792 0 .228.072.396.216.504.156.096.414.18.774.252l1.674.252c1.968.3 2.952 1.29 2.952 2.97 0 .828-.36 1.536-1.08 2.124-.72.588-1.728.882-3.024.882-1.368 0-2.412-.276-3.132-.828-.708-.552-1.116-1.326-1.224-2.322h2.502c.12.804.732 1.206 1.836 1.206 1.068 0 1.602-.336 1.602-1.008 0-.3-.102-.522-.306-.666-.204-.156-.546-.276-1.026-.36l-1.8-.288c-1.656-.312-2.484-1.164-2.484-2.556 0-.852.33-1.548.99-2.088.672-.54 1.656-.81 2.952-.81 1.14 0 2.052.252 2.736.756.696.504 1.092 1.176 1.188 2.016zm5.272-2.538h2.034v2.106h-2.034v3.978c0 .684.396 1.026 1.188 1.026h.846V31h-.882c-1.164 0-2.07-.21-2.718-.63-.636-.432-.954-1.176-.954-2.232v-4.284h-1.35v-2.106h1.35v-2.592h2.52v2.592zm4.487-3.6h6.048c1.428 0 2.538.354 3.33 1.062.792.696 1.188 1.674 1.188 2.934 0 1.62-.636 2.766-1.908 3.438L106.424 31h-2.7l-1.728-4.842h-3.474V31H95.84V18.148zm2.682 2.358v3.366h2.988c.768 0 1.32-.138 1.656-.414.336-.288.504-.714.504-1.278 0-.6-.186-1.026-.558-1.278-.36-.264-.984-.396-1.872-.396h-2.718zM114.426 31v-.792h-.468c-.588.684-1.452 1.026-2.592 1.026-1.008 0-1.806-.294-2.394-.882-.588-.6-.882-1.332-.882-2.196 0-.828.312-1.548.936-2.16.624-.612 1.566-.918 2.826-.918h2.466v-.234c0-.96-.546-1.44-1.638-1.44-.972 0-1.494.33-1.566.99h-2.502c.024-.876.402-1.572 1.134-2.088.732-.528 1.668-.792 2.808-.792 1.32 0 2.346.282 3.078.846.744.564 1.116 1.44 1.116 2.628V31h-2.322zm-2.178-1.764c.612 0 1.11-.18 1.494-.54.384-.36.576-.828.576-1.404v-.576h-1.98c-1.152 0-1.728.414-1.728 1.242 0 .852.546 1.278 1.638 1.278zm10.007-7.488h2.034v2.106h-2.034v3.978c0 .684.396 1.026 1.188 1.026h.846V31h-.882c-1.164 0-2.07-.21-2.718-.63-.636-.432-.954-1.176-.954-2.232v-4.284h-1.35v-2.106h1.35v-2.592h2.52v2.592zm12.929 4.158v.756h-6.624c.072 1.656.822 2.484 2.25 2.484.912 0 1.488-.324 1.728-.972h2.556c-.192.96-.654 1.71-1.386 2.25-.732.54-1.71.81-2.934.81-1.452 0-2.604-.444-3.456-1.332-.84-.888-1.26-2.076-1.26-3.564 0-1.476.42-2.646 1.26-3.51.84-.876 1.974-1.314 3.402-1.314 1.368 0 2.448.408 3.24 1.224.792.816 1.2 1.872 1.224 3.168zm-2.574-.918c-.168-1.056-.804-1.584-1.908-1.584-1.104 0-1.788.528-2.052 1.584h3.96z" fill="#023352"/></svg>