<svg width="116" height="20" fill="none" xmlns="http://www.w3.org/2000/svg"><path d="M34 1.942l1.675 5.153.134.415h5.855l-4.384 3.185-.353.256.135.415 1.675 5.153-4.384-3.185-.353-.256-.353.256-4.384 3.185 1.675-5.153.135-.415-.353-.256-4.384-3.185h5.855l.134-.415L34 1.942zm-24 0l1.675 5.153.134.415h5.855l-4.384 3.185-.353.256.135.415 1.675 5.153-4.384-3.185-.353-.256-.353.256-4.384 3.185 1.675-5.153.135-.415-.353-.256L2.336 7.51h5.855l.134-.415L10 1.942z" fill="#0361DC" stroke="#0361DC" stroke-width="1.2"/><path d="M58 1.942l1.675 5.153.134.415h5.855l-4.384 3.185-.353.256.135.415 1.675 5.153-4.384-3.185-.353-.256-.353.256-4.384 3.185 1.675-5.153.135-.415-.353-.256-4.384-3.185h5.855l.134-.415L58 1.942zm24 0l1.674 5.153.135.415h5.855l-4.384 3.185-.353.256.135.415 1.675 5.153-4.384-3.185-.353-.256-.353.256-4.384 3.185 1.675-5.153.135-.415-.353-.256-4.384-3.185h5.855l.135-.415L82 1.942zm24 0l1.675 5.153.134.415h5.855l-4.384 3.185-.353.256.135.415 1.675 5.153-4.384-3.185-.353-.256-.353.256-4.384 3.185 1.675-5.153.135-.415-.353-.256-4.384-3.185h5.855l.134-.415L106 1.942z" stroke="#0361DC" stroke-width="1.2"/></svg>