<svg width="81" height="81" viewBox="0 0 81 81" fill="none" xmlns="http://www.w3.org/2000/svg">
<path d="M79.7305 33.8653C83.5667 55.621 69.0399 76.3674 47.2842 80.2035C25.5284 84.0396 4.78205 69.5129 0.945921 47.7571C-2.89021 26.0014 11.6365 5.25502 33.3923 1.41889C55.1481 -2.41724 75.8944 12.1095 79.7305 33.8653Z" fill="#7846C5"/>
<path d="M12.1668 41.3323L12.5115 41.2715C12.9251 41.1986 13.2285 41.0646 13.4215 40.8694C13.6221 40.6634 13.7779 40.2569 13.8888 39.6497C13.9997 39.0426 14.0534 38.1375 14.0498 36.9345L14.026 32.9298L21.1678 31.6705L21.1802 41.8186L19.1259 42.1808L19.106 33.9248L15.9625 34.4791L15.9694 36.9372C15.9655 38.151 15.9004 39.1529 15.7744 39.9428C15.6466 40.7235 15.43 41.3493 15.1245 41.8201C14.8189 42.291 14.4677 42.6373 14.0709 42.8589C13.6815 43.0697 13.1698 43.231 12.5356 43.3428L12.1771 43.406L12.1668 41.3323ZM25.9661 43.8179L23.9945 44.1655L25.4954 40.2616L22.5483 34.2703L24.4234 33.9397L26.2338 37.5156L26.5923 37.4524L28.2287 33.2687L30.2002 32.9211L25.9661 43.8179ZM31.0667 32.7683L32.9969 32.4279L32.9974 34.4465C32.9807 34.6201 32.986 34.785 33.0136 34.9412C33.0525 35.1618 33.1614 35.3227 33.3404 35.4238C33.5269 35.5141 33.8361 35.5212 34.2681 35.445C34.7829 35.3543 35.2343 35.2273 35.6226 35.064L35.6303 31.9636L37.5605 31.6233L37.5554 38.9312L35.6252 39.2715L35.6215 36.6706C34.9992 36.9036 34.3893 37.0727 33.7918 37.1781C32.2017 37.4584 31.3143 37.0747 31.1295 36.0269C31.0825 35.7603 31.0628 35.4605 31.0704 35.1275L31.0667 32.7683ZM47.4849 29.8733L49.36 29.5427L49.3687 36.8482L39.6073 38.5694L39.5986 31.2639L41.4736 30.9333L41.4761 36.5908L43.558 36.2237L43.5417 30.5686L45.4168 30.238L45.4193 35.8955L47.4874 35.5308L47.4849 29.8733ZM53.3869 36.1396L51.4153 36.4873L51.4066 29.1818L53.2817 28.8512L53.2836 32.9735L53.642 32.9103L56.2184 28.3334L58.2176 27.9809L58.2263 35.2863L56.3512 35.617L56.3518 31.5084L55.9933 31.5716L53.3869 36.1396ZM62.2329 34.5799L60.2613 34.9275L60.2526 27.622L62.1277 27.2914L62.1295 31.4137L62.488 31.3505L65.0644 26.7736L67.0635 26.4211L67.0722 33.7265L65.1972 34.0572L65.1977 29.9487L64.8393 30.0119L62.2329 34.5799ZM60.9561 24.5979L62.4452 24.3354C62.4392 24.3554 62.4411 24.3929 62.4508 24.4481L62.463 24.517C62.4986 24.7192 62.6051 24.8663 62.7825 24.9582C62.969 25.0486 63.1955 25.0702 63.4621 25.0232C64.0779 24.9146 64.4099 24.567 64.4581 23.9804L65.9609 23.7154C65.9381 24.3923 65.7202 24.9568 65.307 25.4087C64.8923 25.8515 64.3081 26.1393 63.5543 26.2722C62.8374 26.3986 62.253 26.3358 61.801 26.0838C61.3582 25.8301 61.0858 25.4138 60.9837 24.8347L60.9691 24.752C60.9561 24.6785 60.9518 24.6271 60.9561 24.5979ZM20.1479 58.2474L18.7509 55.8069L18.2545 55.8944L16.8527 58.8284L14.7708 59.1955L16.7762 55.0889L14.9689 51.8536L16.8716 51.5181L18.1429 53.8102L18.6255 53.7251L19.9324 50.9784L21.9591 50.621L20.1354 54.4681L22.1195 57.8998L20.1479 58.2474ZM26.3931 49.6544C27.3398 49.4875 28.1851 49.6322 28.929 50.0886C29.6729 50.5451 30.1307 51.2604 30.3025 52.2347C30.5246 53.494 30.343 54.5874 29.7579 55.5151C29.1712 56.4336 28.2574 57.0023 27.0165 57.2211C26.0606 57.3896 25.2161 57.2495 24.483 56.8006C23.7575 56.341 23.308 55.6194 23.1346 54.6359C22.9109 53.3675 23.0833 52.2756 23.6517 51.3603C24.2292 50.4435 25.143 49.8748 26.3931 49.6544ZM26.8586 55.5999C27.4744 55.4913 27.9162 55.148 28.1839 54.5701C28.4516 53.9922 28.5231 53.3493 28.3983 52.6416C28.3075 52.1268 28.0991 51.7513 27.7731 51.515C27.4472 51.2787 27.0406 51.2035 26.5534 51.2894C25.9468 51.3964 25.5096 51.7388 25.2419 52.3167C24.9726 52.8855 24.8995 53.5191 25.0227 54.2177C25.1151 54.7416 25.325 55.1263 25.6527 55.3718C25.9786 55.6081 26.3806 55.6842 26.8586 55.5999ZM36.5887 52.8891L38.5051 52.5512C38.4974 53.3676 38.2308 54.059 37.7052 54.6256C37.1887 55.1905 36.4618 55.5556 35.5242 55.7209C34.5867 55.8863 33.7606 55.7429 33.0459 55.2908C32.3296 54.8295 31.8855 54.1117 31.7137 53.1374C31.4917 51.8781 31.6594 50.7871 32.217 49.8643C32.7745 48.9414 33.6692 48.3714 34.9008 48.1542C35.7189 48.01 36.4433 48.1145 37.0743 48.4676C37.7144 48.8191 38.126 49.3531 38.3092 50.0695L36.4065 50.405C36.199 49.8729 35.7597 49.6661 35.0887 49.7844C34.4913 49.8897 34.0679 50.2297 33.8186 50.8044C33.5676 51.3699 33.5046 52.0066 33.6294 52.7143C33.7201 53.229 33.9155 53.6116 34.2155 53.862C34.5231 54.1015 34.9067 54.1808 35.3663 54.0997C35.7156 54.0382 35.9989 53.8982 36.2163 53.6798C36.4337 53.4614 36.5578 53.1978 36.5887 52.8891ZM39.4631 49.1979L39.4682 47.5337L46.0034 46.3814L45.9983 48.0455L43.7096 48.4491L43.7097 54.0928L41.7794 54.4332L41.7794 48.7894L39.4631 49.1979ZM49.4332 53.0836L47.4616 53.4313L47.4529 46.1258L49.328 45.7952L49.3298 49.9175L49.6883 49.8542L52.2647 45.2773L54.2638 44.9248L54.2726 52.2303L52.3975 52.5609L52.3981 48.4524L52.0396 48.5156L49.4332 53.0836ZM63.0547 43.3748L63.0772 50.6778L61.1331 51.0206L61.1311 48.1067L58.2358 48.6172L58.2378 51.5311L56.3076 51.8715L56.2989 44.566L58.2291 44.2256L58.2271 46.9555L61.1224 46.4449L61.1244 43.7151L63.0547 43.3748ZM70.7851 42.0117L70.78 43.6758L67.0299 44.3371L67.0299 49.9808L65.0997 50.3212L65.091 43.0157L70.7851 42.0117Z" fill="white"/>
</svg>
