<svg width="138" height="48" viewBox="0 0 138 48" fill="none" xmlns="http://www.w3.org/2000/svg">
<path d="M1.50376 31.808L18.4962 21.5838C19.42 21.0245 20.5585 21.0245 21.5038 21.5838L38.4962 31.808C39.42 32.3673 40 33.3964 40 34.515V28.5192C40 27.4006 39.42 26.3715 38.4962 25.8122L21.5038 15.588C20.58 15.0287 19.4415 15.0287 18.4962 15.588L1.50376 25.8122C0.580022 26.3715 0 27.4006 0 28.5192V34.515C0 33.3964 0.580022 32.3673 1.50376 31.808Z" fill="#022A5F"/>
<path d="M38.4962 31.3605L21.5038 41.5847C20.58 42.144 19.4415 42.144 18.4962 41.5847L1.50376 31.3605C0.580022 30.8012 0 29.7721 0 28.6535V34.6493C0 35.7679 0.580022 36.797 1.50376 37.3563L18.4962 47.5805C19.42 48.1398 20.5585 48.1398 21.5038 47.5805L38.4962 37.3563C39.42 36.797 40 35.7679 40 34.6493V28.6535C40 29.7721 39.42 30.8012 38.4962 31.3605Z" fill="#023579"/>
<path d="M1.50376 24.2237L18.4962 13.9995C19.42 13.4402 20.5585 13.4402 21.5038 13.9995L38.4962 24.2237C39.42 24.783 40 25.8122 40 26.9308V20.935C40 19.8164 39.42 18.7872 38.4962 18.2279L21.5038 8.00373C20.58 7.44442 19.4415 7.44442 18.4962 8.00373L1.50376 18.2279C0.580022 18.7872 0 19.8164 0 20.935V26.9308C0 25.8122 0.580022 24.7607 1.50376 24.2237Z" fill="#034BAB"/>
<path d="M38.4962 23.7539L21.5038 33.9781C20.58 34.5374 19.4415 34.5374 18.4962 33.9781L1.50376 23.7539C0.580022 23.1946 0 22.1655 0 21.0468V27.0426C0 28.1613 0.580022 29.1904 1.50376 29.7497L18.4962 39.9739C19.42 40.5332 20.5585 40.5332 21.5038 39.9739L38.4962 29.7497C39.42 29.1904 40 28.1613 40 27.0426V21.0468C40 22.1655 39.42 23.217 38.4962 23.7539Z" fill="#0361DC"/>
<path d="M1.50376 16.6171L18.4962 6.39292C19.42 5.83361 20.5585 5.83361 21.5038 6.39292L38.4962 16.6171C39.42 17.1764 40 18.2055 40 19.3242V13.3284C40 12.2097 39.42 11.1806 38.4962 10.6213L21.5038 0.419483C20.58 -0.139828 19.4415 -0.139828 18.4962 0.419483L1.50376 10.6437C0.580022 11.203 0 12.2321 0 13.3507V19.3465C0 18.2055 0.580022 17.1764 1.50376 16.6171Z" fill="#007ACC"/>
<path d="M38.4962 16.1697L21.5038 26.3938C20.58 26.9532 19.4415 26.9532 18.4962 26.3938L1.50376 16.1697C0.580022 15.6103 0 14.5812 0 13.4626V19.4584C0 20.577 0.580022 21.6062 1.50376 22.1655L18.4962 32.3896C19.42 32.949 20.5585 32.949 21.5038 32.3896L38.4962 22.1655C39.42 21.6062 40 20.577 40 19.4584V13.4626C40 14.5812 39.42 15.6103 38.4962 16.1697Z" fill="#0099FF"/>
<path d="M61.864 18.148H64.546V31H61.864V25.618H56.176V31H53.494V18.148H56.176V23.152H61.864V18.148ZM71.6253 21.514C73.0893 21.514 74.2533 21.958 75.1173 22.846C75.9813 23.734 76.4133 24.91 76.4133 26.374C76.4133 27.838 75.9813 29.014 75.1173 29.902C74.2533 30.79 73.0893 31.234 71.6253 31.234C70.1733 31.234 69.0093 30.79 68.1333 29.902C67.2693 29.002 66.8373 27.826 66.8373 26.374C66.8373 24.922 67.2693 23.752 68.1333 22.864C69.0093 21.964 70.1733 21.514 71.6253 21.514ZM71.6253 29.146C72.3813 29.146 72.9453 28.888 73.3173 28.372C73.7013 27.844 73.8933 27.178 73.8933 26.374C73.8933 25.582 73.7013 24.928 73.3173 24.412C72.9453 23.884 72.3813 23.62 71.6253 23.62C70.8813 23.62 70.3173 23.884 69.9333 24.412C69.5493 24.928 69.3573 25.582 69.3573 26.374C69.3573 27.178 69.5493 27.844 69.9333 28.372C70.3173 28.888 70.8813 29.146 71.6253 29.146ZM86.0806 24.286H83.5786C83.4706 23.734 82.9726 23.458 82.0846 23.458C81.1846 23.458 80.7346 23.722 80.7346 24.25C80.7346 24.478 80.8066 24.646 80.9506 24.754C81.1066 24.85 81.3646 24.934 81.7246 25.006L83.3986 25.258C85.3666 25.558 86.3506 26.548 86.3506 28.228C86.3506 29.056 85.9906 29.764 85.2706 30.352C84.5506 30.94 83.5426 31.234 82.2466 31.234C80.8786 31.234 79.8346 30.958 79.1146 30.406C78.4066 29.854 77.9986 29.08 77.8906 28.084H80.3926C80.5126 28.888 81.1246 29.29 82.2286 29.29C83.2966 29.29 83.8306 28.954 83.8306 28.282C83.8306 27.982 83.7286 27.76 83.5246 27.616C83.3206 27.46 82.9786 27.34 82.4986 27.256L80.6986 26.968C79.0426 26.656 78.2146 25.804 78.2146 24.412C78.2146 23.56 78.5446 22.864 79.2046 22.324C79.8766 21.784 80.8606 21.514 82.1566 21.514C83.2966 21.514 84.2086 21.766 84.8926 22.27C85.5886 22.774 85.9846 23.446 86.0806 24.286ZM91.3528 21.748H93.3868V23.854H91.3528V27.832C91.3528 28.516 91.7488 28.858 92.5408 28.858H93.3868V31H92.5048C91.3408 31 90.4348 30.79 89.7868 30.37C89.1508 29.938 88.8328 29.194 88.8328 28.138V23.854H87.4828V21.748H88.8328V19.156H91.3528V21.748ZM95.8397 18.148H101.888C103.316 18.148 104.426 18.502 105.218 19.21C106.01 19.906 106.406 20.884 106.406 22.144C106.406 23.764 105.77 24.91 104.498 25.582L106.424 31H103.724L101.996 26.158H98.5217V31H95.8397V18.148ZM98.5217 20.506V23.872H101.51C102.278 23.872 102.83 23.734 103.166 23.458C103.502 23.17 103.67 22.744 103.67 22.18C103.67 21.58 103.484 21.154 103.112 20.902C102.752 20.638 102.128 20.506 101.24 20.506H98.5217ZM114.426 31V30.208H113.958C113.37 30.892 112.506 31.234 111.366 31.234C110.358 31.234 109.56 30.94 108.972 30.352C108.384 29.752 108.09 29.02 108.09 28.156C108.09 27.328 108.402 26.608 109.026 25.996C109.65 25.384 110.592 25.078 111.852 25.078H114.318V24.844C114.318 23.884 113.772 23.404 112.68 23.404C111.708 23.404 111.186 23.734 111.114 24.394H108.612C108.636 23.518 109.014 22.822 109.746 22.306C110.478 21.778 111.414 21.514 112.554 21.514C113.874 21.514 114.9 21.796 115.632 22.36C116.376 22.924 116.748 23.8 116.748 24.988V31H114.426ZM112.248 29.236C112.86 29.236 113.358 29.056 113.742 28.696C114.126 28.336 114.318 27.868 114.318 27.292V26.716H112.338C111.186 26.716 110.61 27.13 110.61 27.958C110.61 28.81 111.156 29.236 112.248 29.236ZM122.255 21.748H124.289V23.854H122.255V27.832C122.255 28.516 122.651 28.858 123.443 28.858H124.289V31H123.407C122.243 31 121.337 30.79 120.689 30.37C120.053 29.938 119.735 29.194 119.735 28.138V23.854H118.385V21.748H119.735V19.156H122.255V21.748ZM135.184 25.906V26.662H128.56C128.632 28.318 129.382 29.146 130.81 29.146C131.722 29.146 132.298 28.822 132.538 28.174H135.094C134.902 29.134 134.44 29.884 133.708 30.424C132.976 30.964 131.998 31.234 130.774 31.234C129.322 31.234 128.17 30.79 127.318 29.902C126.478 29.014 126.058 27.826 126.058 26.338C126.058 24.862 126.478 23.692 127.318 22.828C128.158 21.952 129.292 21.514 130.72 21.514C132.088 21.514 133.168 21.922 133.96 22.738C134.752 23.554 135.16 24.61 135.184 25.906ZM132.61 24.988C132.442 23.932 131.806 23.404 130.702 23.404C129.598 23.404 128.914 23.932 128.65 24.988H132.61Z" fill="#023352"/>
</svg>
