<svg width="116" height="20" viewBox="0 0 116 20" fill="none" xmlns="http://www.w3.org/2000/svg">
<path d="M34 1.94164L35.6745 7.09524L35.8092 7.50983H36.2451H41.664L37.28 10.6949L36.9274 10.9512L37.0621 11.3658L38.7366 16.5193L34.3527 13.3342L34 13.078L33.6473 13.3342L29.2634 16.5193L30.9379 11.3658L31.0726 10.9512L30.72 10.6949L26.336 7.50983H31.7549H32.1908L32.3255 7.09524L34 1.94164Z" fill="#0361DC" stroke="#0361DC" stroke-width="1.2"/>
<path d="M10 1.94164L11.6745 7.09524L11.8092 7.50983H12.2451H17.664L13.28 10.6949L12.9274 10.9512L13.0621 11.3658L14.7366 16.5193L10.3527 13.3342L10 13.078L9.64733 13.3342L5.26342 16.5193L6.93792 11.3658L7.07263 10.9512L6.71996 10.6949L2.33605 7.50983H7.75486H8.19079L8.32549 7.09524L10 1.94164Z" fill="#0361DC" stroke="#0361DC" stroke-width="1.2"/>
<path d="M58 1.94164L59.6745 7.09524L59.8092 7.50983H60.2451H65.664L61.28 10.6949L60.9274 10.9512L61.0621 11.3658L62.7366 16.5193L58.3527 13.3342L58 13.078L57.6473 13.3342L53.2634 16.5193L54.9379 11.3658L55.0726 10.9512L54.72 10.6949L50.336 7.50983H55.7549H56.1908L56.3255 7.09524L58 1.94164Z" fill="#0361DC" stroke="#0361DC" stroke-width="1.2"/>
<path d="M82 1.94164L83.6745 7.09524L83.8092 7.50983H84.2451H89.664L85.28 10.6949L84.9274 10.9512L85.0621 11.3658L86.7366 16.5193L82.3527 13.3342L82 13.078L81.6473 13.3342L77.2634 16.5193L78.9379 11.3658L79.0726 10.9512L78.72 10.6949L74.336 7.50983H79.7549H80.1908L80.3255 7.09524L82 1.94164Z" stroke="#0361DC" stroke-width="1.2"/>
<path d="M106 1.94164L107.675 7.09524L107.809 7.50983H108.245H113.664L109.28 10.6949L108.927 10.9512L109.062 11.3658L110.737 16.5193L106.353 13.3342L106 13.078L105.647 13.3342L101.263 16.5193L102.938 11.3658L103.073 10.9512L102.72 10.6949L98.336 7.50983H103.755H104.191L104.325 7.09524L106 1.94164Z" stroke="#0361DC" stroke-width="1.2"/>
</svg>
